<?xml version="1.0" encoding="iso-8859-1"?>
<!-- Generator: Adobe Illustrator 18.0.0, SVG Export Plug-In . SVG Version: 6.00 Build 0)  -->
<!DOCTYPE svg PUBLIC "-//W3C//DTD SVG 1.1//EN" "http://www.w3.org/Graphics/SVG/1.1/DTD/svg11.dtd">
<svg version="1.1" id="Capa_1" xmlns="http://www.w3.org/2000/svg" xmlns:xlink="http://www.w3.org/1999/xlink" x="0px" y="0px"
	 viewBox="0 0 331.381 331.381" style="enable-background:new 0 0 331.381 331.381;" xml:space="preserve">
<g>
	<path d="M223.136,302.984c4.863-5.204,9.469-11.111,13.777-17.679l-11.044-10.997c-11.297,18.125-24.855,30.675-39.468,36.775
		c3.549-8.19,6.679-19.027,9.467-32.669c0.453-2.216,0.885-4.501,1.308-6.82c-5.291,1.608-10.704,2.811-16.192,3.604
		c-5.8,28.533-11.916,36.967-14.371,39.311c-0.309,0.002-0.616,0.012-0.925,0.012c-0.309,0-0.615-0.01-0.923-0.012
		c-2.451-2.34-8.552-10.755-14.345-39.19c-5.531-0.754-10.932-1.92-16.171-3.468c0.408,2.23,0.826,4.427,1.262,6.561
		c2.787,13.642,5.917,24.478,9.466,32.669c-14.981-6.255-28.861-19.272-40.325-38.145c-2.546-4.192-4.903-8.614-7.108-13.196
		c5.496,1.547,11.13,2.899,16.875,4.061c-20.161-10.592-36.646-27.268-46.993-47.575c1.194,6.001,2.601,11.88,4.214,17.611
		c-4.584-2.205-9.006-4.563-13.199-7.109c-18.873-11.464-31.89-25.344-38.145-40.325c8.19,3.55,19.027,6.68,32.668,9.467
		c2.248,0.459,4.568,0.897,6.922,1.325c-1.523-5.233-2.667-10.625-3.397-16.146c-28.79-5.819-37.27-11.971-39.621-14.435
		c-0.002-0.309-0.012-0.615-0.012-0.924c0-0.309,0.01-0.615,0.012-0.924c2.358-2.469,10.884-8.65,39.874-14.484
		c0.828-5.543,2.069-10.952,3.696-16.193c-2.545,0.458-5.053,0.928-7.474,1.423c-13.642,2.787-24.479,5.917-32.669,9.467
		c6.254-14.982,19.272-28.863,38.146-40.327c4.193-2.547,8.615-4.904,13.199-7.109c-1.866,6.628-3.447,13.458-4.75,20.442
		c11.27-22.737,30.186-41.039,53.371-51.513c-7.78,1.375-15.372,3.1-22.719,5.168c2.205-4.583,4.562-9.006,7.109-13.198
		c11.464-18.873,25.344-31.89,40.325-38.145c-3.549,8.191-6.679,19.027-9.466,32.669c-0.555,2.717-1.08,5.541-1.589,8.413
		c5.228-1.563,10.618-2.744,16.139-3.515c5.898-29.881,12.203-38.606,14.705-40.995c0.308-0.002,0.615-0.012,0.923-0.012
		c0.309,0,0.616,0.01,0.925,0.012c2.505,2.393,8.823,11.137,14.728,41.108c5.53,0.813,10.928,2.039,16.16,3.647
		c-0.522-2.958-1.062-5.864-1.633-8.659c-2.788-13.643-5.918-24.48-9.467-32.67c14.982,6.255,28.863,19.271,40.328,38.146
		c2.547,4.193,4.904,8.615,7.109,13.199c-7.749-2.182-15.772-3.977-23.999-5.386c24.302,10.832,43.967,30.244,55.131,54.365
		c-1.385-7.905-3.129-15.618-5.229-23.077c4.584,2.204,9.006,4.561,13.199,7.108c18.875,11.464,31.892,25.345,38.146,40.327
		c-8.19-3.55-19.028-6.68-32.67-9.467c-2.682-0.548-5.469-1.066-8.302-1.569c1.634,5.236,2.882,10.643,3.718,16.182
		c29.63,5.88,38.301,12.151,40.681,14.643c0.002,0.309,0.012,0.615,0.012,0.924c0,0.309-0.01,0.615-0.012,0.924
		c-2.373,2.486-10.997,8.727-40.421,14.592c-0.73,5.479-1.881,10.866-3.421,16.135c2.639-0.473,5.238-0.959,7.745-1.471
		c13.642-2.787,24.479-5.918,32.669-9.467c-6.255,14.981-19.272,28.861-38.146,40.325c-2.028,1.231-4.111,2.417-6.239,3.564
		l11.224,11.176c0.982-0.568,1.957-1.142,2.919-1.727c8.39-5.096,15.783-10.663,22.142-16.606
		c-4.154,9.89-9.352,19.235-15.445,27.908l12.099,12.048c19.95-27.358,31.742-61.026,31.742-97.401
		c0-91.362-74.329-165.69-165.692-165.69C74.328,0.001,0,74.329,0,165.691C0,257.053,74.328,331.38,165.688,331.38
		c33.35,0,64.424-9.913,90.447-26.933l-12.24-12.189C237.298,296.35,230.364,299.949,223.136,302.984z M302.985,108.245
		c-6.359-5.943-13.752-11.511-22.142-16.606c-8.489-5.156-17.739-9.672-27.586-13.514c-3.843-9.848-8.358-19.098-13.515-27.587
		c-5.096-8.39-10.663-15.782-16.606-22.142C259.079,43.492,287.89,72.303,302.985,108.245z M108.246,28.395
		c-5.944,6.359-11.511,13.753-16.607,22.143c-5.156,8.489-9.671,17.739-13.514,27.586c-9.848,3.843-19.098,8.358-27.587,13.515
		c-8.39,5.096-15.783,10.663-22.142,16.606C43.491,72.302,72.303,43.49,108.246,28.395z M28.396,223.137
		c6.359,5.943,13.752,11.511,22.142,16.606c8.489,5.157,17.74,9.673,27.587,13.516c3.843,9.846,8.358,19.096,13.514,27.584
		c5.096,8.39,10.663,15.784,16.608,22.143C72.303,287.891,43.491,259.08,28.396,223.137z"/>
	<path d="M239.965,224.848c12.582-16.086,20.091-36.322,20.091-58.279c0-52.254-42.511-94.766-94.765-94.766
		s-94.765,42.512-94.765,94.766c0,52.253,42.511,94.764,94.765,94.764c19.486,0,37.615-5.914,52.691-16.038l72.471,72.163
		c2.927,2.915,6.755,4.371,10.584,4.371c3.849,0,7.699-1.473,10.629-4.416c5.846-5.87,5.826-15.368-0.045-21.213L239.965,224.848z
		 M100.527,166.568c0-35.712,29.053-64.766,64.765-64.766c35.711,0,64.765,29.054,64.765,64.766
		c0,35.711-29.053,64.764-64.765,64.764C129.58,231.332,100.527,202.279,100.527,166.568z"/>
	<path d="M202.861,173.494c0.527-2.52,0.807-5.127,0.807-7.803c0-2.676-0.279-5.287-0.808-7.809l6.77-6.016
		c1.115-0.99,1.381-2.633,0.636-3.926l-6.921-11.984c-0.746-1.293-2.298-1.883-3.717-1.41l-8.618,2.865
		c-3.869-3.471-8.454-6.156-13.498-7.813l-1.825-8.875c-0.3-1.461-1.587-2.51-3.081-2.51h-13.838c-1.491,0-2.779,1.049-3.08,2.51
		l-1.824,8.877c-5.044,1.658-9.628,4.348-13.496,7.813l-8.62-2.865c-1.415-0.469-2.969,0.121-3.716,1.412l-6.92,11.986
		c-0.744,1.295-0.481,2.932,0.636,3.924l6.773,6.016c-0.529,2.52-0.807,5.129-0.807,7.805c0,2.676,0.278,5.285,0.808,7.809
		l-6.771,6.014c-1.115,0.992-1.382,2.635-0.635,3.926l6.921,11.986c0.746,1.293,2.299,1.883,3.713,1.41l8.622-2.865
		c3.869,3.469,8.452,6.154,13.499,7.813l1.821,8.875c0.303,1.461,1.59,2.508,3.083,2.51h13.838c1.493,0,2.781-1.049,3.079-2.51
		l1.825-8.877c5.045-1.66,9.627-4.348,13.496-7.814l8.619,2.865c1.417,0.469,2.969-0.121,3.717-1.412l6.921-11.986
		c0.744-1.293,0.48-2.93-0.639-3.922L202.861,173.494z M165.691,182.57c-9.308,0-16.882-7.572-16.882-16.879
		c0-9.307,7.574-16.879,16.882-16.879c9.306,0,16.879,7.572,16.879,16.879C182.57,174.998,174.997,182.57,165.691,182.57z"/>
</g>
<g>
</g>
<g>
</g>
<g>
</g>
<g>
</g>
<g>
</g>
<g>
</g>
<g>
</g>
<g>
</g>
<g>
</g>
<g>
</g>
<g>
</g>
<g>
</g>
<g>
</g>
<g>
</g>
<g>
</g>
</svg>
